# xmcd
#
# Track frame offsets: 
#        150
#        25692
#        46029
#        62976
#        83751
#        97173
#        112080
#        131884
#        150611
#        169168
#        187722
#        211054
#        229469
#        253551
#        271426
#        282028
#        300872
#        312444
#        326229
#        339076
#
# Disc length: 4667 seconds
#
# Revision: 0
# Processed by: cddbd v1.5.2PL0 Copyright (c) Steve Scherf et al.
# Submitted via: ExactAudioCopy v0.99pb4
#
DISCID=13123914
DTITLE=John Lee Hooker - John Lee Hooker Bluesmasters
DYEAR=1900
DGENRE=Blues
TTITLE0=The Healer
TTITLE1=I'm In The Mood
TTITLE2=Baby Lee
TTITLE3=Cuttin' Out
TTITLE4=Think Twice Before You Go
TTITLE5=Sally Mae
TTITLE6=That's Allright
TTITLE7=Rockin' Chair
TTITLE8=My Dream
TTITLE9=No Substitute
TTITLE10=It Serves You Right To Suffer
TTITLE11=You Know, I Know
TTITLE12=I'm Bad Like Jesse James
TTITLE13=Burning Hell
TTITLE14=Big Legs, Tight Skirt
TTITLE15=Shake It Baby
TTITLE16=Boom Boom
TTITLE17=Hobo Blues
TTITLE18=Huckle Up Baby
TTITLE19=I Need Some Money
EXTD=
EXTT0=
EXTT1=
EXTT2=
EXTT3=
EXTT4=
EXTT5=
EXTT6=
EXTT7=
EXTT8=
EXTT9=
EXTT10=
EXTT11=
EXTT12=
EXTT13=
EXTT14=
EXTT15=
EXTT16=
EXTT17=
EXTT18=
EXTT19=
PLAYORDER=
